<?xml version="1.0" encoding="utf-8"?>
<!-- Generator: Adobe Illustrator 28.0.0, SVG Export Plug-In . SVG Version: 6.00 Build 0)  -->
<svg version="1.1" id="Слой_1" xmlns="http://www.w3.org/2000/svg" xmlns:xlink="http://www.w3.org/1999/xlink" x="0px" y="0px"
	 viewBox="0 0 200 200" style="enable-background:new 0 0 200 200;" xml:space="preserve">
<style type="text/css">
	.st0{fill:#FFFFFF;}
</style>
<g>
	<path class="st0" d="M136.6,18.1C149.7,18.3,161,22,171,29.4c5.7,4.3,5.8,5.7,0.8,10.7c-23.2,23.3-46.5,46.5-69.7,69.7
		c-13.4,13.4-26.7,26.8-40,40.1c-3.8,3.8-5.4,3.9-9.4,0.2c-11-10-20.6-21.2-28.9-33.6c-2.9-4.3-2.8-5.4,0.8-9
		c24.9-25,49.7-50,74.8-74.8C109.8,22.6,122.9,18.4,136.6,18.1z"/>
	<path class="st0" d="M193.9,75.1c0,12.6-4.6,23.7-11.1,34.2c-18.4,29.8-43,52.9-74.1,69c-5.1,2.6-10.3,2.9-15.2,0
		c-8.9-5.2-17.7-10.7-26.4-16.4c-4.3-2.8-4.2-5-0.2-9c30.2-30.2,60.4-60.5,90.6-90.7c6.3-6.3,12.6-12.6,18.9-18.9
		c3.4-3.3,5.9-3.2,8.4,0.9C190.8,53.7,193.7,64,193.9,75.1z"/>
	<path class="st0" d="M8,72.6C8.2,33.1,52.8,5.4,89.6,24c5,2.5,5.6,5.2,1.6,9.1c-18,18.1-36.1,36.1-54.1,54.1
		c-4.8,4.8-9.6,9.8-14.5,14.6c-3.5,3.4-6.4,2.9-8.5-1.4C10.2,92.2,7.9,83.7,8,72.6z"/>
</g>
</svg>
